<svg width="400" height="400" viewBox="0 0 400 400" xmlns="http://www.w3.org/2000/svg">
<g>
  <title>Layer 1</title>
  <rect id="svg_1" height="400" width="400" y="0" x="0" stroke="#000" fill="#000000"/>
  <g id="layer1"  >
   <g stroke-width="1px" fill="#000000" text-anchor="start" font-family="'Times New Roman'" font-weight="normal" font-style="normal" id="text5540" aria-label="α">
    <path fill="#e5e5e5" id="path814" d="m241.99219,110.44922l33.20312,0l-20.11719,90.42968q-5.85937,25.78125 -8.00781,31.64063q7.8125,35.9375 22.65625,35.9375q17.57813,0 18.16406,-24.21875l7.03125,0q-0.58593,22.65625 -8.39843,36.71875q-7.61719,13.86719 -20.11719,13.86719q-10.35156,0 -15.42969,-8.39844q-5.07812,-8.39844 -10.9375,-34.375q-20.3125,42.77344 -66.40625,42.77344q-31.44531,0 -50,-24.41407q-18.55469,-24.60937 -18.55469,-70.3125q0,-44.92187 20.3125,-69.92187q20.3125,-25 48.82813,-25q20.11719,0 33.00781,14.25781q12.89063,14.25781 22.85156,46.48438l11.91407,-55.46875zm-17.1875,76.5625q-9.17969,-31.44532 -20.50782,-49.02344q-11.32812,-17.77344 -27.14843,-17.77344q-35.74219,0 -35.74219,83.59375q0,79.29688 34.17969,79.29688q29.6875,0 43.94531,-69.92188l5.27344,-26.17187z"/>
   </g>
  </g>
 </g>
</svg>